<svg  width="69" height="69" viewBox="0 0 69 69" fill="none" xmlns="http://www.w3.org/2000/svg">
<path d="M20.3635 41.9427V43.7285M48.9364 41.9427V43.7285M34.6499 9.79815C37.0429 9.79815 39.4716 10.1196 41.7932 10.7268C48.1506 3.58354 59.7584 0.583388 64.7229 2.65492C69.7232 4.72646 63.2229 27.6562 63.2229 27.6562C65.2587 31.4779 66.7945 35.6566 66.7945 39.9426C66.7945 55.872 52.4009 66.944 34.6499 66.944C16.899 66.944 2.50541 56.2291 2.50541 39.9426C2.50541 35.4781 4.29122 31.3707 6.07702 27.6562C6.07702 27.6562 -0.673327 4.72646 4.29122 2.65492C9.25576 0.583388 21.1492 3.4764 27.5067 10.6196C29.8496 10.0795 32.2456 9.80397 34.6499 9.79815Z" stroke="#1E375F" stroke-opacity="0.5" stroke-width="4" stroke-linecap="round" stroke-linejoin="round"/>
<path d="M31.9711 49.9788H37.3286L34.6498 52.6575L31.9711 49.9788Z" stroke="#1E375F" stroke-opacity="0.5" stroke-width="4" stroke-linecap="round" stroke-linejoin="round"/>
</svg>
