<svg width="74" height="69" viewBox="0 0 74 69" fill="none" xmlns="http://www.w3.org/2000/svg">
<path d="M50.8467 41.4794V43.2652M33.8816 49.5155H39.239L36.5603 52.1942L33.8816 49.5155Z" stroke="#1E375F" stroke-opacity="0.5" stroke-width="4" stroke-linecap="round" stroke-linejoin="round"/>
<path d="M9.48744 31.6467C8.48968 35.5069 7.98563 39.4781 7.98736 43.4652C7.98736 58.366 20.7809 66.4807 36.5603 66.4807C52.3397 66.4807 65.1332 58.366 65.1332 43.4652C65.1154 39.4617 64.5224 35.4815 63.3724 31.6467M22.2738 41.4794V43.2652" stroke="#1E375F" stroke-opacity="0.5" stroke-width="4" stroke-linecap="round" stroke-linejoin="round"/>
<path d="M24.0596 21.8356C22.6881 25.5858 20.1915 29.0788 15.6877 30.7646C8.79091 33.3433 2.9156 29.7039 2.62987 27.193C2.22628 23.6428 6.83366 3.87038 16.9163 2.19172C23.7845 1.04523 29.9563 5.20974 29.9563 10.1743C34.4737 9.0275 39.2121 9.0792 43.7034 10.3243C43.7034 5.35974 50.2895 1.04523 57.1577 2.19172C67.2404 3.87038 71.8477 23.6428 71.4442 27.193C71.1584 29.7039 65.2831 33.3433 58.3863 30.7646C53.8825 29.0788 51.761 25.5858 50.3895 21.8356" stroke="#1E375F" stroke-opacity="0.5" stroke-width="4" stroke-linecap="round" stroke-linejoin="round"/>
</svg>
