<svg width="101" height="100" viewBox="0 0 101 100" fill="none" xmlns="http://www.w3.org/2000/svg">
<rect x="0.333344" width="100" height="100" rx="50" fill="#F4F8FF"/>
<rect x="2.33334" y="2" width="96" height="96" rx="48" stroke="#1E375F" stroke-opacity="0.7" stroke-width="4"/>
<path d="M39.9846 43.9601C39.9846 40.3201 37.0323 37.3684 33.3916 37.3684C29.751 37.3684 26.8 40.3201 26.8 43.9601C26.8 47.6027 29.7503 50.553 33.3916 50.553C37.0329 50.553 39.9846 47.6027 39.9846 43.9601ZM66.2738 38.6561C62.6338 38.6561 59.6822 41.6077 59.6822 45.2477C59.6822 48.8903 62.6338 51.8394 66.2738 51.8394C69.9145 51.8394 72.8661 48.8903 72.8661 45.2477C72.8661 41.6077 69.9151 38.6561 66.2738 38.6561ZM60.2867 52.5856C59.8284 52.0207 59.1797 51.3668 58.4348 50.6811C56.4471 48.1051 53.3382 46.4385 49.8334 46.4385C46.714 46.4385 43.9099 47.7593 41.9281 49.864C40.8023 50.8436 39.8013 51.7997 39.1643 52.5862L38.7379 53.1069C36.7489 55.532 34.273 58.5493 34.2912 63.6694C34.3088 68.4241 38.1808 72.2949 42.9219 72.2949C44.2376 72.2977 45.5362 71.9965 46.7164 71.4149C47.8965 70.8332 48.9263 69.9867 49.7255 68.9415C50.5248 69.987 51.5549 70.8336 52.7354 71.4153C53.9159 71.997 55.2149 72.298 56.531 72.2949C61.2701 72.2949 65.1415 68.4248 65.1597 63.6694C65.1779 58.5493 62.7014 55.532 60.7131 53.1069L60.2867 52.5856Z" fill="#1E375F"/>
<path d="M50.2903 42.2338C54.302 42.2338 57.5541 38.9817 57.5541 34.97C57.5541 30.9584 54.302 27.7063 50.2903 27.7063C46.2786 27.7063 43.0266 30.9584 43.0266 34.97C43.0266 38.9817 46.2786 42.2338 50.2903 42.2338Z" fill="#1E375F"/>
</svg>
